# xmcd
#
# Track frame offsets:
#	150
#	18442
#	32835
#	47269
#	57579
#	74145
#	89266
#	100937
#	120482
#	138800
#	156507
#
# Disc length: 2326 seconds
# Revision: 3
# Processed by: cddbd v1.5.2PL0 Copyright (c) Steve Scherf et al.
# Submitted via: dBpowerAMP V12.0
#
DISCID=9409140b
DTITLE=Dave Stamey - Buckaroo Man
DYEAR=1997
DGENRE=Country
TTITLE0=Buckaroo Man
TTITLE1=Desert Blues
TTITLE2=Cowpoke
TTITLE3=Princess Di
TTITLE4=Mountain Wind
TTITLE5=The Auctioneer
TTITLE6=Uncle Harvey's Plane
TTITLE7=Montana
TTITLE8=Ridin Down the Canyon
TTITLE9=Mountains of the Heart
TTITLE10=McGee Creek (Packer's Song)
EXTD=
EXTT0=
EXTT1=
EXTT2=
EXTT3=
EXTT4=
EXTT5=
EXTT6=
EXTT7=
EXTT8=
EXTT9=
EXTT10=
PLAYORDER=
